<svg id="Layer_1" data-name="Layer 1" xmlns="http://www.w3.org/2000/svg" viewBox="0 0 710 256"><defs><style>.cls-1{fill:#f7931e;}</style></defs><title>PascalLogo-2019</title><path class="cls-1" d="M256,128A128,128,0,1,1,128,0,128,128,0,0,1,256,128ZM180.135,62l1.913-9a3.14,3.14,0,0,0-3.15-4h-6a5.2136,5.2136,0,0,0-4.85,4l-1.913,9h-14l1.913-9a3.14,3.14,0,0,0-3.15-4h-6a5.2136,5.2136,0,0,0-4.85,4l-1.913,9H60L40,86H172a12,12,0,0,1,12,12v12a12,12,0,0,1-12,12H110.3816l5.1014-24h-32L60.1017,208h32L105.28,146h15l-1.9131,9a3.14,3.14,0,0,0,3.15,4h6a5.2136,5.2136,0,0,0,4.85-4l1.9131-9h14l-1.9131,9a3.14,3.14,0,0,0,3.15,4h6a5.2136,5.2136,0,0,0,4.85-4l1.9131-9H192a24,24,0,0,0,24-24V86a24,24,0,0,0-24-24Z"/><path d="M344.65,102.5734h26.3727V207.6778H344.65V196.5684a51.7258,51.7258,0,0,1-15.4855,10.5781,43.3538,43.3538,0,0,1-16.838,3.2352q-20.3592,0-35.22-15.7937-14.8586-15.7945-14.86-39.2692,0-24.3441,14.3784-39.8972t34.93-15.5531a44.3938,44.3938,0,0,1,17.7518,3.5743,48.4461,48.4461,0,0,1,15.3426,10.723Zm-27.7213,21.6391a26.6515,26.6515,0,0,0-20.3176,8.646q-8.0858,8.6465-8.0876,22.1705,0,13.6211,8.2306,22.4119a26.6791,26.6791,0,0,0,20.2673,8.7909,27.1643,27.1643,0,0,0,20.6036-8.6459q8.1841-8.6451,8.1842-22.6535,0-13.7167-8.1842-22.2188Q329.4439,124.2135,316.9289,124.2125Z"/><path d="M449.857,117.2571,433.531,133.583q-9.9492-9.8535-18.0648-9.8535a11.3713,11.3713,0,0,0-6.9554,1.8838,5.6613,5.6613,0,0,0-2.5117,4.6852,5.7581,5.7581,0,0,0,1.5939,3.9125q1.594,1.7881,7.8732,4.8784l9.66,4.83q15.2643,7.5351,20.9629,15.36a31.9945,31.9945,0,0,1-4.5886,41.7327q-10.2884,9.3709-27.58,9.3695-22.99,0-36.7092-17.9672l16.2293-17.6784a37.4817,37.4817,0,0,0,10.8679,8.7426q6.231,3.3327,11.0611,3.3328a13.1886,13.1886,0,0,0,8.4045-2.5117,7.28,7.28,0,0,0,3.1879-5.7962q0-6.0861-11.4958-11.8822l-8.8875-4.4438q-25.5033-12.8472-25.5033-32.1689,0-12.4618,9.612-21.301,9.61-8.8392,24.5856-8.8392a42.6526,42.6526,0,0,1,34.584,17.3886Z"/><path d="M561.3932,123.8261l-21.9541,12.0754q-6.1874-6.4715-12.2357-8.9841a36.7532,36.7532,0,0,0-14.1679-2.5117q-14.8,0-23.9383,8.8257-9.1406,8.8261-9.1406,22.6168,0,13.4094,8.8025,21.8961,8.7987,8.4885,23.1153,8.4875,17.7015,0,27.5647-12.0754l20.7949,14.2384q-16.9047,21.9892-47.7221,21.9869-27.7231,0-43.4212-16.4216-15.7019-16.422-15.7-38.4481A54.1155,54.1155,0,0,1,482.3253,107.21a63.575,63.575,0,0,1,30.5731-7.3418,61.9952,61.9952,0,0,1,28.1115,6.2309A53.3475,53.3475,0,0,1,561.3932,123.8261Z"/><path d="M644.3117,102.5734h26.3727V207.6778H644.3117V196.5684a51.7258,51.7258,0,0,1-15.4855,10.5781,43.3633,43.3633,0,0,1-16.84,3.2352q-20.3562,0-35.2177-15.7937t-14.86-39.2692q0-24.3441,14.3765-39.8972,14.38-15.5526,34.9317-15.5531a44.4079,44.4079,0,0,1,17.7519,3.5743,48.4679,48.4679,0,0,1,15.3425,10.723Zm-27.7232,21.6391a26.6474,26.6474,0,0,0-20.3157,8.646q-8.0886,8.6465-8.0876,22.1705,0,13.6211,8.2306,22.4119a26.6734,26.6734,0,0,0,20.2673,8.7909,27.1643,27.1643,0,0,0,20.6036-8.6459q8.1813-8.6451,8.1842-22.6535,0-13.7167-8.1842-22.2188Q629.1054,124.2135,616.5885,124.2125Z"/><path d="M683.6273,62H710V207.6778H683.6273Z"/></svg>
