<svg xmlns="http://www.w3.org/2000/svg" viewBox="0 0 1314.76 294.09" width="5109.68" height="1142.95"><path d="M63.5 59.32L40.95 89.39h174.2v31.34a14.74 14.74 0 0 1-11.7 12.53h-81.89l5.85-28.4H88.98l-26.74 132h37.6l15.04-74.37h20.89l-1.79 6.8a7.24 7.24 0 0 0 7 9.08h2a7.24 7.24 0 0 0 6.9-5.06l3.42-10.81h17.55l-1.72 6.52a7.46 7.46 0 0 0 7.2 9.35h.73a7.45 7.45 0 0 0 7.11-5.2l3.36-10.67h24.65a50.93 50.93 0 0 0 13.48-1.77c9.36-2.56 23.28-8.6 27.05-22.19a24.7 24.7 0 0 0 .82-6.6V93.82a30 30 0 0 0-13.66-25.32c-5.5-3.52-13.19-6.33-23.93-7.1h-8.33l1.92-7.72a7.23 7.23 0 0 0-7.02-8.98h-2.97a7.23 7.23 0 0 0-6.9 5.05l-3.42 10.82h-16.7l1.92-7.72a7.23 7.23 0 0 0-7.01-9h-1.87a7.23 7.23 0 0 0-7 5.4l-2.75 10.48zm230.6 87.73a147.05 147.05 0 0 1-147.05 147.04A147.05 147.05 0 0 1 0 147.05 147.05 147.05 0 0 1 147.05 0a147.05 147.05 0 0 1 147.04 147.05z" fill="#ed9529"/><g fill="#100f0d"><path d="M396.09 91.84c-8.8 0-16.11 3-21.91 9-5.8 6.02-8.7 13.87-8.7 23.56 0 9.9 2.9 17.9 8.7 24.01 5.8 6.12 13.1 9.17 21.9 9.17a28.4 28.4 0 0 0 21.56-9.32c5.84-6.21 8.76-14.13 8.76-23.76 0-9.55-2.87-17.39-8.6-23.5-5.74-6.1-12.97-9.16-21.71-9.16zM366.7 68.9v12.29a52.6 52.6 0 0 1 16.38-11.37 47.17 47.17 0 0 1 18.85-3.79c14.54 0 26.9 5.5 37.07 16.49 10.17 10.99 15.25 25.09 15.25 42.3 0 16.58-5.25 30.46-15.77 41.62-10.5 11.16-22.97 16.74-37.37 16.74a46.4 46.4 0 0 1-17.92-3.43c-5.53-2.29-11.03-6.02-16.49-11.21v52.53h-27.75V68.9h27.75M516.23 91.84c-8.64 0-15.82 3.05-21.54 9.16-5.71 6.11-8.57 13.95-8.57 23.5 0 9.63 2.9 17.55 8.72 23.76a28.28 28.28 0 0 0 21.49 9.32c8.78 0 16.06-3.05 21.84-9.17 5.78-6.1 8.67-14.1 8.67-24 0-9.7-2.89-17.55-8.67-23.56-5.78-6-13.1-9.01-21.94-9.01zM545.6 68.9h27.96V180.3h-27.96v-11.77c-5.45 5.19-10.92 8.92-16.41 11.2a45.93 45.93 0 0 1-17.85 3.44c-14.39 0-26.83-5.58-37.33-16.74-10.5-11.16-15.75-25.04-15.75-41.63 0-17.2 5.08-31.3 15.24-42.3 10.16-10.98 22.5-16.48 37.02-16.48 6.69 0 12.96 1.27 18.82 3.8a51.38 51.38 0 0 1 16.26 11.36v-12.3M657.14 84.46l-17.3 17.31c-7.04-6.96-13.42-10.44-19.16-10.44-3.14 0-5.6.66-7.37 2-1.78 1.32-2.66 2.98-2.66 4.96 0 1.5.56 2.88 1.69 4.15 1.12 1.26 3.9 2.98 8.34 5.17l10.24 5.12c10.79 5.32 18.2 10.75 22.22 16.28 4.03 5.53 6.05 12.01 6.05 19.46 0 9.9-3.64 18.16-10.91 24.78-7.27 6.62-17.01 9.93-29.24 9.93-16.24 0-29.22-6.35-38.9-19.05l17.2-18.74a39.76 39.76 0 0 0 11.51 9.27c4.4 2.36 8.32 3.53 11.73 3.53 3.69 0 6.66-.88 8.9-2.66 2.26-1.77 3.39-3.82 3.39-6.14 0-4.3-4.06-8.5-12.19-12.6l-9.42-4.7c-18.02-9.09-27.03-20.45-27.03-34.1 0-8.82 3.4-16.34 10.19-22.59 6.79-6.25 15.47-9.37 26.06-9.37a45.26 45.26 0 0 1 36.66 18.43M775.37 91.43l-23.27 12.8c-4.38-4.58-8.7-7.75-12.97-9.53-4.28-1.77-9.28-2.66-15.02-2.66-10.46 0-18.92 3.12-25.38 9.36-6.46 6.24-9.68 14.23-9.68 23.97 0 9.48 3.1 17.22 9.33 23.21 6.21 6 14.38 9 24.5 9 12.5 0 22.25-4.27 29.22-12.8l22.04 15.1c-11.95 15.53-28.8 23.3-50.59 23.3-19.59 0-34.93-5.8-46.02-17.4-11.1-11.61-16.65-25.2-16.65-40.76a57.3 57.3 0 0 1 30.68-51.2c9.65-5.2 20.46-7.79 32.4-7.79 11.06 0 21 2.2 29.8 6.6a56.57 56.57 0 0 1 21.61 18.8M833.88 91.84c-8.64 0-15.82 3.05-21.54 9.16-5.71 6.11-8.57 13.95-8.57 23.5 0 9.63 2.9 17.55 8.72 23.76a28.27 28.27 0 0 0 21.49 9.32c8.78 0 16.06-3.05 21.84-9.17 5.78-6.1 8.67-14.1 8.67-24 0-9.7-2.89-17.55-8.67-23.56-5.78-6-13.1-9.01-21.94-9.01zm29.38-22.94h27.96V180.3h-27.96v-11.77c-5.45 5.19-10.92 8.92-16.4 11.2a45.94 45.94 0 0 1-17.86 3.44c-14.38 0-26.83-5.58-37.33-16.74-10.5-11.16-15.75-25.04-15.75-41.63 0-17.2 5.08-31.3 15.24-42.3 10.16-10.98 22.5-16.48 37.02-16.48 6.69 0 12.96 1.27 18.82 3.8a51.4 51.4 0 0 1 16.26 11.36v-12.3M904.94 25.89h27.96v154.42h-27.96V25.9M1055.2 92.04l-11.36 7.07c-9.82-13.04-23.21-19.56-40.2-19.56-13.56 0-24.83 4.36-33.8 13.1-8.97 8.72-13.45 19.32-13.45 31.8 0 8.12 2.06 15.76 6.19 22.92a43.38 43.38 0 0 0 16.98 16.67c7.19 3.95 15.26 5.93 24.19 5.93 16.36 0 29.73-6.52 40.1-19.56l11.36 7.48a53.68 53.68 0 0 1-21.45 18.66c-8.98 4.42-19.2 6.63-30.68 6.63-17.6 0-32.22-5.6-43.82-16.8-11.6-11.19-17.41-24.8-17.41-40.85 0-10.79 2.71-20.8 8.14-30.06a57.35 57.35 0 0 1 22.37-21.66c9.5-5.18 20.1-7.78 31.85-7.78 7.37 0 14.5 1.13 21.35 3.38 6.86 2.25 12.68 5.2 17.46 8.8a47.9 47.9 0 0 1 12.19 13.83M1116.27 80.06c-11.92 0-22.16 4.4-30.73 13.21-8.56 8.8-12.84 19.46-12.84 31.95a45.3 45.3 0 0 0 5.86 22.53 41.51 41.51 0 0 0 15.82 16.13 43.43 43.43 0 0 0 21.9 5.68c7.94 0 15.24-1.9 21.88-5.68a41.49 41.49 0 0 0 15.82-16.13 45.3 45.3 0 0 0 5.86-22.53c0-12.5-4.3-23.14-12.9-31.95-8.6-8.8-18.82-13.2-30.67-13.2zm.05-14.03c17.17 0 31.4 6.22 42.68 18.64 10.26 11.33 15.38 24.75 15.38 40.24 0 15.57-5.42 29.17-16.25 40.81-10.85 11.64-24.78 17.46-41.8 17.46-17.1 0-31.07-5.82-41.91-17.46-10.84-11.64-16.26-25.24-16.26-40.8 0-15.44 5.12-28.81 15.39-40.15 11.28-12.5 25.54-18.74 42.77-18.74M1185.44 68.9h14.33V180.3h-14.33zm7.12-45.88c3.26 0 6.05 1.16 8.36 3.48a11.47 11.47 0 0 1 3.46 8.4c0 3.21-1.15 5.98-3.46 8.3a11.36 11.36 0 0 1-8.36 3.48c-3.2 0-5.95-1.16-8.26-3.48a11.36 11.36 0 0 1-3.47-8.3c0-3.28 1.16-6.07 3.47-8.4a11.26 11.26 0 0 1 8.26-3.48M1217.58 68.9h14.34v19.97c5.73-7.65 12.08-13.37 19.05-17.16a46.8 46.8 0 0 1 22.73-5.68c8.33 0 15.72 2.12 22.17 6.35a37.83 37.83 0 0 1 14.28 17.1c3.08 7.17 4.61 18.33 4.61 33.49v57.34h-14.33v-53.14c0-12.84-.54-21.4-1.6-25.7-1.66-7.38-4.85-12.93-9.56-16.65-4.7-3.72-10.86-5.58-18.44-5.58-8.67 0-16.43 2.87-23.3 8.6a40.27 40.27 0 0 0-13.56 21.3c-1.37 5.53-2.05 15.64-2.05 30.31v40.86h-14.34V68.9"/></g></svg>
